<?xml version="1.0" encoding="UTF-8"?>
<svg version="1.1" xmlns="http://www.w3.org/2000/svg" width="278" height="576">
<path d="M0 0 C26.75441224 0 26.75441224 0 35 1.1875 C35.98814697 1.32349609 36.97629395 1.45949219 37.99438477 1.59960938 C91.82098032 9.36795536 141.5293003 32.66684129 182 69 C182.53931152 69.47759766 183.07862305 69.95519531 183.63427734 70.44726562 C197.12236732 82.40970006 209.26481851 95.51475334 220 110 C220.72268066 110.96993896 220.72268066 110.96993896 221.45996094 111.95947266 C229.00459749 122.15724912 235.63024459 132.7281786 241.78320312 143.81738281 C242.86199759 145.75245957 243.96476044 147.67064662 245.078125 149.5859375 C265.75609531 186.31875468 278.01746728 231.83582013 278.203125 274.0703125 C278.20882507 275.1090451 278.21452515 276.14777771 278.22039795 277.21798706 C278.22979504 279.41142783 278.23636072 281.60488237 278.24023438 283.79833984 C278.24983165 287.06765263 278.28086135 290.33630586 278.3125 293.60546875 C278.40663696 312.28160668 276.75833983 330.72978984 272.75 349 C272.53947998 349.97525635 272.32895996 350.9505127 272.11206055 351.95532227 C267.63963456 372.05146596 261.1100501 391.09207352 253 410 C252.49581543 411.18432617 252.49581543 411.18432617 251.98144531 412.39257812 C240.51381203 438.98798049 223.70524954 463.23132482 204.2265625 484.55078125 C202.78592241 486.13548535 201.3626593 487.73623839 199.9609375 489.35546875 C189.27260491 501.62503406 177.04581912 512.31661217 164 522 C163.36400879 522.47646973 162.72801758 522.95293945 162.07275391 523.44384766 C114.71644863 558.69682448 58.73881944 576 0 576 C0 385.92 0 195.84 0 0 Z " fill="#03A4ED" transform="translate(0,0)"/>
</svg>
