<?xml version="1.0" encoding="UTF-8"?>
<svg version="1.1" xmlns="http://www.w3.org/2000/svg" width="208" height="34">
<path d="M0 0 C2.33416257 -0.00250924 4.6683194 -0.00646916 7.00247955 -0.01062775 C10.65312585 -0.01645157 14.30372858 -0.0165874 17.95437622 -0.01195526 C19.93606811 -0.01036064 21.91776199 -0.01327717 23.89945221 -0.01630402 C25.65681702 -0.01165131 25.65681702 -0.01165131 27.44968414 -0.0069046 C28.98258591 -0.00571121 28.98258591 -0.00571121 30.54645538 -0.00449371 C32.95993805 0.12248993 32.95993805 0.12248993 34.95993805 1.12248993 C34.95993805 2.44248993 34.95993805 3.76248993 34.95993805 5.12248993 C36.84712555 5.02967743 36.84712555 5.02967743 38.77243805 4.93498993 C41.40075986 4.94897036 42.68886989 4.97463457 45.02243805 6.24748993 C46.4661101 9.13483402 45.74445208 11.04478106 44.95993805 14.12248993 C44.75368805 15.19498993 44.54743805 16.26748993 44.33493805 17.37248993 C42.95993805 20.12248993 42.95993805 20.12248993 39.33493805 21.49748993 C38.22118805 21.70373993 37.10743805 21.90998993 35.95993805 22.12248993 C37.94977698 24.11232886 41.81536422 23.49640566 44.51462555 23.64592743 C47.33168233 24.1949385 48.32491003 24.78280337 49.95993805 27.12248993 C49.64743805 30.30998993 49.64743805 30.30998993 48.95993805 33.12248993 C41.26724896 34.16659513 33.70499138 34.26403691 25.94846344 34.25188446 C24.55091557 34.25324212 23.15336807 34.2550241 21.75582123 34.25719452 C17.97786042 34.26173259 14.1999271 34.25999234 10.42196584 34.25681543 C6.43563471 34.25426451 2.44930578 34.25663772 -1.53702545 34.2582016 C-8.24759588 34.26001895 -14.9581553 34.25763212 -21.66872406 34.25286102 C-29.35678757 34.247457 -37.04482439 34.24915447 -44.73288721 34.25468743 C-51.38225462 34.25927651 -58.03161416 34.2598401 -64.68098265 34.25724876 C-68.62984721 34.25571253 -72.5786994 34.25541647 -76.5275631 34.25878525 C-92.19098221 34.27037358 -107.83040154 34.2023769 -123.48127651 33.47146034 C-124.43839314 33.42694677 -125.39550978 33.3824332 -126.38162994 33.33657074 C-127.3058481 33.29357723 -128.23006626 33.25058372 -129.18229103 33.20628738 C-133.23594843 33.08742335 -137.28197612 33.18270717 -141.3351202 33.30051613 C-144.26831592 33.10746736 -146.3854276 32.34944964 -149.04006195 31.12248993 C-149.04006195 29.47248993 -149.04006195 27.82248993 -149.04006195 26.12248993 C-150.33943695 25.99873993 -151.63881195 25.87498993 -152.97756195 25.74748993 C-155.1924057 25.53655243 -155.1924057 25.53655243 -157.04006195 25.12248993 C-158.6473183 21.90797724 -158.0975438 18.68636457 -158.04006195 15.12248993 C-153.31702855 13.61513885 -148.89923436 12.7853117 -143.9580307 12.36858368 C-141.95867219 12.21918952 -141.95867219 12.21918952 -140.04006195 11.12248993 C-140.04006195 10.46248993 -140.04006195 9.80248993 -140.04006195 9.12248993 C-140.70006195 9.12248993 -141.36006195 9.12248993 -142.04006195 9.12248993 C-142.04006195 8.13248993 -142.04006195 7.14248993 -142.04006195 6.12248993 C-135.54362253 3.62168604 -129.47471889 2.47171928 -122.54787445 1.97405243 C-121.00367325 1.85545364 -121.00367325 1.85545364 -119.42827606 1.73445892 C-105.70328615 0.77298521 -91.94751168 0.65929658 -78.19491577 0.52119446 C-75.88681355 0.49719622 -73.57876886 0.47004228 -71.27071381 0.4418869 C-47.51460365 0.15301749 -23.75780037 0.02218556 0 0 Z " fill="#03A4ED" transform="translate(158.0400619506836,-0.12248992919921875)"/>
</svg>
